<svg xmlns="http://www.w3.org/2000/svg" viewBox="0 0 3560.22 1861.1"><defs><style>.cls-1{fill:#22f1f7;}.cls-2{fill:#29d3ce;}.cls-3{fill:#d0fafb;}.cls-4{fill:#7eaa37;}.cls-11,.cls-12,.cls-17,.cls-5{fill:#34a58f;}.cls-6{fill:#db744c;}.cls-7{fill:#f36523;}.cls-8{fill:#d35422;}.cls-9{fill:#8ec63f;}.cls-10,.cls-11{opacity:0.6;}.cls-12{opacity:0.3;}.cls-13,.cls-15,.cls-16{fill:#fff;}.cls-14{fill:#ddd;}.cls-15{opacity:0.4;}.cls-16{opacity:0.5;}.cls-17{opacity:0.2;}.cls-18{fill:#93b857;}.cls-19{fill:#ffb3a3;}.cls-20{fill:#454547;}.cls-21{fill:#fe8d71;}.cls-22{fill:#58595b;}.cls-23{fill:#414143;}.cls-24{fill:#ffbfb2;}.cls-25{fill:#37b5a1;}</style></defs><title>Asset 2</title><g id="Layer_2" data-name="Layer 2"><g id="_Layer_" data-name="&lt;Layer&gt;"><path class="cls-1" d="M3547.2,1861.1,2718,1859.51,1950.51,1858l-282.23-.54-1102.1-2.09s-285.45-213.85-378.49-551c-25.89-92.9-35.08-191.87-24.95-288.58C180.47,842,262.81,638.17,408.61,514.32c195.1-165.74,480.26-215.44,624.82-187.53,18.79,3.62,35.22,8.56,48.75,14.74,192.48,87.74,447.76-149.26,999.54-312,197.2-58.16,512.87-32.29,756.91,93.31,25.92,13.34,51,27.8,75.1,43.4a743.19,743.19,0,0,1,83.1,62.3q13.1,11.4,25.5,23.37c153.87,148.51,225.15,366,111.45,660.73-1.22,3.15-2.47,6.3-3.72,9.46-.17.49-.36,1-.57,1.46-11.11,27.85-19,53.59-24,77.51-11.93,56.73-7.79,103.21,7.47,143.14,45.23,118.48,188.35,179.38,300.4,280.32l2.45,2.24a538.64,538.64,0,0,1,48,49.24q4.79,5.64,9.44,11.44,3.4,4.29,6.72,8.66c17,22.48,29.89,48.5,42.14,75.66C3562.15,1660.55,3567.05,1777.28,3547.2,1861.1Z"/><path class="cls-2" d="M3547.2,1861.1,2718,1859.51,1950.51,1858l-282.23-.54c17.25-48.26,161-416.09,349.13-384.33,197.36,33.32,131.86,40.84,596.19,225.76,307.52,122.47,674.05-171.27,866.41-202.77C3560.21,1602.24,3575.27,1742.55,3547.2,1861.1Z"/><path class="cls-3" d="M3133.78,912.67,185.34,1295.74C165,1218.8,154.71,1135.52,160.17,1047q.95-15.46,2.57-31.17L2996.82,228.59q13.11,11.39,25.51,23.35C3176.2,400.45,3247.47,617.9,3133.78,912.67Z"/><path class="cls-4" d="M1950.51,1858,566.18,1855.4S350.6,1693.89,233.07,1430.33a892.68,892.68,0,0,1-45.38-125.89c-.81-2.89-1.58-5.79-2.35-8.69a804.07,804.07,0,0,1-20.28-103.18,766.11,766.11,0,0,1-4.9-145.54c.65-10.31,1.48-20.71,2.58-31.17A805.26,805.26,0,0,1,193.45,864c88.33,9.37,211,41.31,296.72,140,148.36,170.77,652.62,183.26,771.18,133.29s505.74-108.09,597.46,68.82C1944.36,1371,1950.12,1800.85,1950.51,1858Z"/><path class="cls-3" d="M200.51,840.49,2356,122.88,245.49,730A852.42,852.42,0,0,0,200.51,840.49Z"/><path class="cls-5" d="M542.88,1285.36C490.17,1240.41,358,1316.6,303,1241.67l-.29-.38c39.77-15.32,99.46-41.8,83.05-57.31-16.65-15.73-62.39,21.37-91.32,47.15-1.24-1.37-2.5-2.7-3.76-4,38.85-49.69,99.26-136.39,59.46-150-37.91-12.91-64.65,75.31-78.09,134.36-40.65-27.62-87.39-22.75-107-19a804.07,804.07,0,0,0,20.28,103.18c.77,2.9,1.54,5.8,2.35,8.69a892.68,892.68,0,0,0,45.38,125.89c143.43-10.21,309.81-23.62,309.81-23.62S595.61,1330.33,542.88,1285.36Z"/><path class="cls-6" d="M901.05,1486.66c-.24-58.11-88.18-119.11-88.18-119.11,15.21-1.2,54,18.4,54,18.4-10.4-9.2-58.81-24.41-58.81-24.41-15.6-10-64.41-16-67.21-16.8s50-7.2,50-7.2l-63.41,4.25s-57-7-98.62-11.25-155.62,13-155.62,13c5.2-4.4,47.21-13,47.21-13-53.37,5.4-131.78,20-131.9,20-45.53,3-75.75,5.68-75.75,5.68L285.19,1852s458.47-2.41,523.28,0,98.42-91.22,112.82-201.64C928,1599.28,920.73,1539.44,901.05,1486.66Z"/><path class="cls-7" d="M365.82,1353.32S218.21,1342.1,124.6,1460.91a157.06,157.06,0,0,0-9.69,13.8c3.19-18.1,12.65-34,12.65-34-19.2,16-25.9,59.6-25.9,59.6h0c-8.32,19.73-13.75,41.55-16.59,64.4-11.66,14.26-21.53,25.62-21.53,25.62l20.79-19c-4.29,42-.09,87,10.75,128.52-7.52-1.35-18.21-2.13-25.54,2.13,0,0,14.62-4.09,26.64,2a357.43,357.43,0,0,0,12.74,38.22c3.92,21.19,12.28,47.47,16.34,59.73-2.73-9.83-4.9-23.76-6.56-37.67,26.28,53.46,65.1,91.23,110.3,91.61,122.41,1,273.2-17.75,305.82-177.57S499,1357.34,365.82,1353.32Z"/><path class="cls-7" d="M125.27,1802a64.61,64.61,0,0,0,2.29,6.86C127.75,1809.27,126.82,1806.62,125.27,1802Z"/><path class="cls-8" d="M307.41,1851.73c-33.93,0-74.79-5.75-109.67-27.1-37.7-23.07-62.33-60.28-73.2-110.58-18.5-85.62-9.41-155.87,27-208.8,34.06-49.48,91.57-81.7,166.31-93.18,50.43-7.76,94.12,8.55,126.29,47.14,46.5,55.76,59.87,150,32.5,229.08-19.34,55.89-71,90.43-138.17,92.37-1.92,0-3.83.08-5.74.08-67.66,0-128.66-34.59-149.61-85.43-21.35-51.82-20.24-102.51,3.12-142.74,23.72-40.85,68.52-67.42,126.14-74.82,52.16-6.71,80.3,17.58,94.71,39.13,27.81,41.57,27.75,109.11,9.1,141.71-17.95,31.41-67.66,55.66-110.82,54.15-31.15-1.11-54.93-15.53-67-40.59-15.47-32.23-14.45-65.51,2.78-91.32,13.88-20.78,36.3-33.46,57.1-32.34,23.89,1.31,34.08,21.26,35.54,38,1.29,14.7-3.72,31.06-15.8,33.88-22.46,5.24-30.43-7-30.75-7.54,0,0-12.13-20,3-22.9C307.53,1586.58,303,1600,303,1600c.25.38-4.26,18.51,13.66,14.32,7.39-1.73,12.24-13.73,11.05-27.33-1.31-14.92-9.8-31.24-29.72-32.32-18.7-1.06-38.94,10.6-51.63,29.6-16,23.94-16.85,55-2.35,85.22,14.08,29.34,41.27,36.36,61.61,37.1,41.08,1.4,88.31-21.43,105.24-51,15.7-27.46,19.92-92.18-8.87-135.22-19.28-28.82-50-41.43-88.79-36.43-55.68,7.15-98.85,32.64-121.59,71.79-22.38,38.53-23.35,87.28-2.75,137.29s82.09,83.48,149.46,81.53c64.51-1.86,114.05-34.84,132.51-88.22,26.7-77.18,13.79-168.92-31.39-223.11-21.42-25.68-59.73-54.33-120.63-45-73,11.21-129.08,42.54-162.15,90.58-35.42,51.47-44.19,120.11-26.06,204,10.5,48.59,34.18,84.46,70.38,106.61,73.16,44.77,188.55,17.67,189.56,17.41l-13.06,7C376.91,1844,346.83,1851.73,307.41,1851.73Z"/><path class="cls-8" d="M2272.73,1401.05c-.28-69.31-105.18-142.07-105.18-142.07,18.14-1.44,64.42,22,64.42,22-12.4-11-70.14-29.11-70.14-29.11-18.61-11.93-76.83-19.09-80.17-20s59.65-8.59,59.65-8.59l-75.64,5.06s-68-8.4-117.63-13.41-185.63,15.51-185.63,15.51c6.21-5.25,56.31-15.51,56.31-15.51-63.66,6.43-157.2,23.85-157.32,23.88-54.31,3.61-90.35,6.77-90.35,6.77l-32.92,591.37s546.87-2.86,624.17,0,117.39-108.8,134.57-240.51C2304.83,1535.39,2296.2,1464,2272.73,1401.05Z"/><path class="cls-7" d="M1634.32,1242s-176.08-13.39-287.74,128.33A187.91,187.91,0,0,0,1335,1386.8c3.8-21.58,15.08-40.5,15.08-40.5-22.9,19.09-30.88,71.09-30.88,71.09h0c-9.92,23.53-16.4,49.56-19.79,76.81-13.9,17-25.68,30.56-25.68,30.56l24.8-22.7c-5.11,50.06-.1,103.74,12.82,153.3-9-1.61-21.71-2.53-30.46,2.54,0,0,17.44-4.87,31.78,2.4a424.23,424.23,0,0,0,15.2,45.58c4.66,25.29,14.64,56.63,19.49,71.25-3.26-11.72-5.85-28.34-7.83-44.93,31.34,63.77,77.65,108.81,131.56,109.28,146,1.25,325.87-21.18,364.78-211.81S1793.22,1246.8,1634.32,1242Z"/><path class="cls-7" d="M1347.39,1777.14a74.49,74.49,0,0,0,2.72,8.18C1350.34,1785.86,1349.23,1782.71,1347.39,1777.14Z"/><path class="cls-8" d="M1564.64,1836.51c-40.48,0-89.21-6.87-130.81-32.33-45-27.52-74.35-71.89-87.31-131.89-22.07-102.13-11.23-185.93,32.22-249.06,40.62-59,109.21-97.46,198.36-111.15,60.16-9.25,112.27,10.2,150.65,56.23,55.46,66.52,71.4,178.88,38.76,273.25-23.07,66.67-84.68,107.86-164.81,110.18-2.29.06-4.57.1-6.84.1-80.71,0-153.48-41.27-178.46-101.9-25.46-61.82-24.15-122.29,3.72-170.27,28.3-48.72,81.73-80.41,150.46-89.24,62.22-8,95.78,21,113,46.67,33.17,49.59,33.09,130.14,10.86,169-21.42,37.46-80.71,66.38-132.2,64.59-37.15-1.34-65.51-18.53-79.86-48.42-18.45-38.44-17.24-78.15,3.32-108.93,16.55-24.78,43.29-39.91,68.11-38.57,28.49,1.55,40.64,25.35,42.39,45.26,1.53,17.54-4.45,37-18.85,40.42-26.79,6.24-36.29-8.38-36.68-9,0,0-14.47-23.89,3.53-27.32,20.61-3.93,15.19,12.07,15.19,12.07.29.44-5.09,22.07,16.29,17.07,8.81-2,14.6-16.37,13.18-32.6-1.56-17.78-11.69-37.25-35.45-38.55-22.31-1.26-46.46,12.65-61.59,35.31-19.08,28.56-20.1,65.62-2.8,101.65,16.79,35,49.23,43.38,73.49,44.25,49,1.68,105.33-25.56,125.53-60.89,18.73-32.75,23.76-110-10.58-161.29-23-34.37-59.62-49.41-105.91-43.45-66.41,8.52-117.91,38.94-145,85.63-26.69,46-27.86,104.11-3.28,163.76s97.91,99.57,178.28,97.25c76.94-2.23,136-41.56,158.06-105.23,31.84-92.06,16.44-201.49-37.46-266.12-25.55-30.64-71.24-64.8-143.87-53.67-87.09,13.37-154,50.73-193.42,108.05-42.25,61.39-52.71,143.25-31.08,243.33,12.52,58,40.77,100.73,84,127.16,87.26,53.4,224.89,21.08,226.1,20.76l-15.57,8.41C1647.53,1827.25,1611.65,1836.51,1564.64,1836.51Z"/><path class="cls-3" d="M2467.43,163.12a55.27,55.27,0,1,0,55.27,55.27A55.26,55.26,0,0,0,2467.43,163.12Z"/><path class="cls-4" d="M3138.23,1854.62H3022.94c-6.18-5.24,4.27-17.14,15.2-17.94,4.74-.36,10.74.64,17.59,2.08,1.59-21.07,10.65-115.8,44.8-112,38.39,4.26,0,41.72-10.86,63.89-8,16.43-16.52,40-20.39,51.1,3.11.67,6.34,1.33,9.64,1.94,5.09-15.62,24-68.18,48.1-65.12,28.27,3.58,16.91,24.66-3.13,37.17-14.7,9.19-32.75,22.27-41.33,28.58a122.06,122.06,0,0,0,22.54,1.81C3124.85,1845.67,3134.49,1851.49,3138.23,1854.62Z"/><path class="cls-9" d="M0,1856.61s195.5-162.3,370.19-106.1C782,1883,823.29,1560.9,1097.65,1736s370.36,99,620.2,42.59,554,8.05,804.85,78.17Z"/><path class="cls-9" d="M2291.25,1817.89s43.39-105.32,77.94-96.52S2291.25,1817.89,2291.25,1817.89Z"/><path class="cls-9" d="M2299.5,1821.31s49.95-42.93,74.22-31.07S2299.5,1821.31,2299.5,1821.31Z"/><path class="cls-9" d="M1002.89,1698.92s.87-82.82-49.17-86.58S1002.89,1698.92,1002.89,1698.92Z"/><path class="cls-4" d="M155.67,1856.78s130.84-81.33,223.47-63.83,228.1-1,232.73,63.83Z"/><path class="cls-4" d="M411.85,1825.37s86.84-77.73,129.39-70.56S411.85,1825.37,411.85,1825.37Z"/><path class="cls-4" d="M416.38,1817c-.95-5.75-.37-102.8,26.55-97.43S416.38,1817,416.38,1817Z"/><g class="cls-10"><path class="cls-5" d="M1754,541.55c-15.68,148.09-85.6,657.69-90.46,693.1.11,16.13-5.25,87.22-101.33,155-28.43,20.07-76.22,48.61-122.77,66.59l-7.17-44.12-2-12.2c30.74-11.85,70.88-25.22,103.4-47.84,24.65-17.13,46.94-37.52,62.64-61.43,20.12-30.64,20.17-53,20.1-55.6l-.32-2.77.49-2.15c.73-5.41,74.45-541.6,90.54-693.55,4-38.1-3.65-68.36-22.84-89.93-33.44-37.6-93-39.85-95.33-39.92h-315.2V359.61h315.69c3.32,0,81.88,1.55,130,55.72C1747.89,447.23,1759.49,489.7,1754,541.55Z"/></g><g class="cls-10"><path class="cls-5" d="M1728.9,561c-15.68,148.1-85.6,657.69-90.46,693.1.1,14.59-4.28,74.16-76.23,135.57-31.14,26.57-60.42,47.69-122,71.46l-10-61.19c9-3.45,7.72-2.25,17.42-6.6,32.53-14.52,59.31-23.24,86-41.24,24.65-17.13,46.94-37.52,62.64-61.43,20.12-30.64,20.17-53,20.1-55.6l-.32-2.77.49-2.15c.73-5.41,74.45-541.6,90.54-693.55,4-38.1-3.65-68.36-22.84-89.93-33.44-37.6-93-39.85-95.33-39.92h-315.2V379h290.59c3.32,0,81.89,1.56,130.06,55.72C1722.79,466.67,1734.39,509.13,1728.9,561Z"/></g><path class="cls-11" d="M1457.59,1690.24l-.36.53-91.39,134.55a71.83,71.83,0,0,1-59.22,31.46l-778.78,1.94a71.91,71.91,0,0,1-65.11-41.4l-77.81-166.16a71.77,71.77,0,0,1-5.59-43.48l27.26-147.92L512.18,887.09l75.69-410.46a71.83,71.83,0,0,0,1.19-13V329.79c0-39.66,23.12-80.76,62.78-80.76h550.6a71.81,71.81,0,0,1,71.81,71.82V435.36a73.21,73.21,0,0,0,.93,11.54l155.1,953,2.15,13.24,10.23,62.86L1469,1637.76l.09.59A71.81,71.81,0,0,1,1457.59,1690.24Z"/><path class="cls-11" d="M1229.56,188.45c0,.71,0,1.42-.09,2.12-.66,16.66-4.58,36.24-14,58.46H651.84l-7.11-3.62-89.8-45.8s88-76.73,164-76.73h492s16.92,19.88,18.5,56.63c.06,1.21.1,2.43.11,3.68C1229.61,184.9,1229.6,186.66,1229.56,188.45Z"/><path class="cls-12" d="M1229.56,188.45c0,.71,0,1.42-.09,2.12-.73,16.66-5,36.24-15.2,58.46H976c37.21-16.28,71.14-32.62,91.81-53.3,23.15-23.14,35-41.64,35.28-72.85h106.32s18.33,19.88,20,56.63c.06,1.21.1,2.43.11,3.68C1229.61,184.9,1229.6,186.66,1229.56,188.45Z"/><path class="cls-13" d="M1380.46,1676.75l-52.82,77.78a103.89,103.89,0,0,1-85.68,45.53l-614.61,1.65a149.37,149.37,0,0,1-135.27-86L454.76,1636a125.72,125.72,0,0,1-9.7-76.58L464.72,1455,623.1,613.67a4.15,4.15,0,0,1,3.6-3.34c51.07-6.09,222.15-41.12,273-9.48,101.59,63.15,181-12.09,349.71,2.87a4.12,4.12,0,0,1,3.72,3.5l135.59,878.39,14.15,91.63A139.26,139.26,0,0,1,1380.46,1676.75Z"/><path class="cls-12" d="M1457.59,1690.24l-.36.53-91.39,134.55a71.64,71.64,0,0,1-30.22,25.26H1093.43l30.57-50.2,82.57-135.57A186.39,186.39,0,0,0,1230.84,1535L1066.25,617.41l-36.41-203a51.08,51.08,0,0,1-.76-11.24c.91-21.12,3.76-95.57-.26-115.17C1024.13,265.07,976,249,976,249h226.42a71.81,71.81,0,0,1,71.81,71.82V435.36a73.21,73.21,0,0,0,.93,11.54l155.1,953,2.15,13.24,10.23,62.86L1469,1637.76l.09.59A71.81,71.81,0,0,1,1457.59,1690.24Z"/><path class="cls-14" d="M1380.46,1676.75l-52.82,77.78a103.89,103.89,0,0,1-85.68,45.53l-614.61,1.65a149.37,149.37,0,0,1-135.27-86L454.76,1636a125.72,125.72,0,0,1-9.7-76.58S555,1629,891,1637.18c284.59,6.94,511.86-59.94,511.86-59.94A139.26,139.26,0,0,1,1380.46,1676.75Z"/><path class="cls-15" d="M688.23,298.92c-8.8,0-16,6.87-16,15.27V487a14.4,14.4,0,0,0,.79,4.7l-150,1042s19.72,132.68,61.89,203.48a36,36,0,0,0,31,17.19H767.34c16.08,0,27.83-14.46,23.86-29.32-12.56-47-49.64-119.08-55.24-197.89C735.31,1518,874,480.28,874,480.28s-.43-.7-1.25-1.86V314.19c0-8.4-7.19-15.27-16-15.27Z"/><polygon class="cls-11" points="971.88 677.7 1015.8 1857.79 1513.89 1857.79 1550.82 677.7 971.88 677.7"/><path class="cls-16" d="M1520.54,679.83l-5.74,183.34-4.8,153.61-20.74,662.69c-1,31.82-23.08,57-50,57h-347c-28.39,0-51.76-26.47-53-60.07l-27-725L1010.2,896l-8-216.14Z"/><path class="cls-13" d="M1510,1016.78l-20.74,662.69c-1,31.82-23.08,57-50,57h-347c-28.39,0-51.76-26.47-53-60.07l-27-725c42.3-10.33,125.73-17.92,225.26,39.88C1321.93,1040.35,1432.56,1032.11,1510,1016.78Z"/><rect class="cls-15" x="1064.66" y="712.38" width="64.51" height="1132.83"/><rect class="cls-17" x="1343.4" y="678.29" width="115.32" height="1166.92"/><path class="cls-11" d="M1494.68,690.16a5,5,0,0,0-4.85-3.46H1152.57c-118.62,0,292.2,9.26,292.2,9.26a36.89,36.89,0,0,1,36.89,36.88s13.19,128,13.19,124.17V693.3a5.58,5.58,0,0,0-.11-1A4.3,4.3,0,0,0,1494.68,690.16Z"/><path class="cls-11" d="M667.19,158.62a2.51,2.51,0,0,0-1.06-.83c-7.86-2.78-62,32.85-63.86,35.63s63.86,48.13,63.86,48.13H810.05C774.31,242,678.27,167.33,667.19,158.62Z"/><path class="cls-9" d="M1442,1854.57s-129.52-.13-147.72.66-126.58-37.48-126.58-37.48l0,0c2.25-1.25,81.35-45,129.71-61.54,48.69-16.63,143.15,96.7,144.53,98.36Z"/><path class="cls-4" d="M1442,1854.57s-129.52-.13-147.72.66-126.58-37.48-126.58-37.48l0,0c2.76-.52,107.29-20.38,146.32-12.85,39.25,7.57,126.56,49,127.92,49.67Z"/><path class="cls-18" d="M1427.3,1853.82s41.56-2.48,52.56-13.16c0,0,6,1.71,6.77,4.35C1486.63,1845,1458.43,1857.63,1427.3,1853.82Z"/><path class="cls-4" d="M3133.78,912.68c-1.22,3.15-2.47,6.3-3.72,9.46-.17.49-.36,1-.57,1.46-11.11,27.85-19,53.59-24,77.51-11.93,56.73-7.79,103.21,7.47,143.14-103.94-13.06-109.91-90.38-109.91-90.38s16.66-84.43-213.79-111.72c-70.56-8.36-121.61-27-157.12-51.46,8.26-28.52,32.18-52.44,32.18-52.44-27.67,5.81-47.86,20.5-58.78,30.25-53.46-54.32-50.38-126.49-21.74-181.8,24.26-46.84,80-69.85,125.17-106,14.84,6.33,36.83,18.78,49.75,40.32,0,0-7-38-28-59.92,31.4-32.39,52.07-76.49,42.21-149.71-21.58-160.31,108-230.12,140.81-245.09a743.19,743.19,0,0,1,83.1,62.3q13.1,11.4,25.5,23.37C3176.2,400.46,3247.48,617.9,3133.78,912.68Z"/><path class="cls-19" d="M2279.84,1081.06c-.81-12.15-27.37-42.11-27.37-42.11C2234.58,997.43,2217.93,900,2217.93,900c-3-113.8-15.94-179.69-26.37-215.18-6.66-22.7-12.34-33-13.8-35.4l-.35-.59c-.14.13-.28.25-.41.39a135.44,135.44,0,0,0-10.54,11c-71.55,83.19-10.43,216.43-8.55,246.88,2,31.88,69.77,136.44,69.77,136.44h0c2.34,7.73,3.42,13,1.44,19.5-2.33,7.67,9.56,16,11,23.16s5.24,6.81,6.7,4.67-3.26-15.54-3.72-18.94,7.24,8,9,15.54-5.61,26.26,6.2,23.65S2280.65,1093.21,2279.84,1081.06Z"/><path class="cls-20" d="M2073.19,497.75s-.59,12.65,7,15.12-7.82,29.77-6.61,48.2,9.36,25.83,9.36,25.83-3.91-10.14-1.72-16.41c0,0-.35,13,9.17,19.62s7,12.27,7,12.27,21.53-6.45,22.13-22.59c0,0,.92,7.3.18,10.32,0,0,18.58-14,19.47-30s-14.63-29.64-21.7-29.89-22.83-14.12-22.41-19.36S2073.19,497.75,2073.19,497.75Z"/><path class="cls-21" d="M2132.67,407.4c-12.53-19-62.25-8.37-111.05,23.77s-78.22,73.62-65.7,92.63,62.24,8.37,111-23.77S2145.19,426.42,2132.67,407.4Z"/><path class="cls-22" d="M2240,1810.43l-26.32,9.8s-114.32-158.55-128.39-298c-2.52-24.9-1.68-49,3.76-71.31,0,0-1.12-6.39-3.07-17.67-.91-5.26-2-11.6-3.29-18.86-3.72-21.3-8.83-50.43-14.68-83.61-13.45-76.35-30.88-173.94-44.41-245.69l7.09-2.28,76.73-24.75,15.86-50.37,57.13-15s12.77,25,24.18,142.91c2.1,15.48,4,32.54,5.45,51a1009.45,1009.45,0,0,1-5.43,206.6q-3.93,30.75-10,63.41c-3,15.94-3.46,37.67-2.19,62.61C2198.15,1633.21,2240,1810.43,2240,1810.43Z"/><path class="cls-23" d="M2210.05,1186.55,2086,1433.2c-.91-5.26-2-11.6-3.29-18.86-3.72-21.3-8.83-50.43-14.68-83.61-13.45-76.35-30.88-173.94-44.41-245.69l7.09-2.28,76.73-24.75,15.86-50.37,68.25-20.3s1.65,30.23,13.06,148.17C2206.7,1151,2208.61,1168.05,2210.05,1186.55Z"/><path class="cls-22" d="M2179.7,998.8c3.78-4.54-27.1.82-27.1.82-48.12,12.78-176.68-35.71-176.68-35.71s-46.62,41-40.5,139.2c3,47.94,8.44,251.66,14.14,311.94,2.06,21.85,3.87,37.4,4.6,43.61a.1.1,0,0,1,0,.06,8.69,8.69,0,0,1-1.4,5.34,283.32,283.32,0,0,0-21,44.24c-55.93,149.06,8.62,332.63,8.62,332.63l16.75-6.75s36.74-204.29,66.59-294.54c5.06-15.31,9.92-27.34,14.37-34.53,13-20.95,25-55.17,36-95.88,20.66-77,37.29-177.07,48.36-254.35C2123.91,1155,2139.82,1046.57,2179.7,998.8Z"/><path class="cls-20" d="M2105.18,409.56l-87.73,133.12s-10-19.65-21.17-12.61c-17.38,11-54.72-26.6-46.93-79.68q.76-5.2,1.79-9.9c17.51-25.22,36.95-53.3,50.9-73C2042.33,343.11,2105.18,409.56,2105.18,409.56Z"/><path class="cls-24" d="M2143.74,678.47c-12.27,11.25-28.22,21.31-48.89,29.14-77.47,29.36-117.32-34.08-135.15-78.92,10.06-7.72,20.14-10.49,26-12s11.71-2.75,16.71-3.68c8-8.1,17.6-38.08,14.62-82.2l3.9.5,65.38,8.68s-.16,20.43,1,39.57c.92,15,2.68,29.15,6,32.24,5.06.4,8.11.69,8.11.69s0,0,0,.06A410,410,0,0,1,2143.74,678.47Z"/><path class="cls-21" d="M2086.29,540s-.18,20.42,1,39.57c-36.2,1.28-57.4-30.47-66.39-48.25Z"/><path class="cls-24" d="M2099.51,557.35s-85.41,6.86-88.86-46.4-16.79-88.23,37.59-94.86,66.31,13,71.79,30.5S2121.64,554.2,2099.51,557.35Z"/><path class="cls-20" d="M2115.6,417.14c-14.24-15.18-24-11-29.29-5.85-48.37-22.72-76.06,17.18-76.06,17.18-3.29,38.58-29.45,62.22-29.45,62.22s16.19,8.64,51.53-2.89c10.79-3.52,20.1-11.94,27.82-21.93-13,25.3-31.66,44.11-31.66,44.11,41.65-22.56,55.09-83.35,56.4-89.77,5.52,4.36,16.46,13.89,20.23,23.67,5.12,13.29,8.82,41.08,16.9,39.62C2122,483.5,2137,439.91,2115.6,417.14Z"/><path class="cls-23" d="M2037.75,1854.62H1905.19s-3.17-20.21,3.75-35.53c6.63-14.71,17-21.39,14.54-39.19,8.42,8.67,22.15,18.39,41.31,15.81,2.35,3.8,15.16,24.18,23,29.81C1996.46,1831.75,2035.08,1829.53,2037.75,1854.62Z"/><path class="cls-7" d="M2200.3,692.37c-10.63-53.17-43.56-68.4-43.56-68.4s-18.66-7.14-36.07-9.6c-4.72-.67-10-1.19-15.76-1.65l-3.56-.25,0,.07c1.17,1.78,32,49.23,30.32,62-1.75,13-114.1,8.54-122.24,2-6.53-5.28-17.87-40.52-22.1-54.3-1.07-3.44-1.7-5.54-1.7-5.54s-39.23,6.85-57.68,22.13c0,0,14.12,15.49,23.55,34.53.89,1.82,1.75,3.63,2.54,5.48a81.77,81.77,0,0,1,4.11,11.9c1.35,5.3.13,10.76-2.73,16.63-2.57,5.37-6.55,11.13-11.15,17.38-3,4.07-6.28,8.37-9.59,13,2.33,7.76,5.37,17,8.75,27.55,6.94,21.62,15.19,48.33,21.09,77.08a73.35,73.35,0,0,1-.74,32.6,75,75,0,0,1-4.27,12.42c-2.8,6.28-3.5,14.92-6.64,23-12.84,33.25-27.66,76.63-12.81,99.29,9.91,29,239.31-41.37,223.87-71.74,0,0,9.15-159.33,15.46-208.69.2-1.81.37-3.55.47-5.31a79.87,79.87,0,0,0,0-8.19C2199.77,706.69,2200.3,692.37,2200.3,692.37Z"/><path class="cls-23" d="M2322.38,1854.62H2189.81s-4.95-21.14,3.75-35.53c7.71-12.73,4.75-20-.95-30.52a51.45,51.45,0,0,0,22.33,4.21c6.6-.38,13.58-3.38,19.71-6.94,5.7,6.51,30.13,34.2,37.77,39.68C2281.08,1831.75,2319.71,1829.53,2322.38,1854.62Z"/><path class="cls-21" d="M1947.52,476.6s-39.72-79.06,15.79-110.32,96.13-19,126.66,19.24Z"/><path class="cls-19" d="M2171.13,376.84c-11.43-18.32-51.39-15.36-99.64,4.4a396.92,396.92,0,0,0-59.1,30.57c-25.07,15.63-46.91,32.75-64,49.49-31.93,31.23-47.52,61.14-37.18,77.72,11.49,18.41,51.82,15.32,100.43-4.7-3.95-4.31-9.49-7.94-15.32-4.25-6,3.78-14.33,1.81-22.38-4.58-5.94-1-10.34-3.36-12.76-7.22a15.2,15.2,0,0,1-1.82-10.37c2.47-18.48,28.66-47.18,66.28-70.65,28.9-18,57.62-28.63,77.4-29.89,11.5-.75,20,1.66,23.7,7.64,3.21,5.15,2.5,12.32-1.44,20.62,2.17,8.69,2.14,17.92,1.3,25.92C2163.43,427.86,2182.25,394.66,2171.13,376.84Z"/><path class="cls-7" d="M2042,892.11c-33,10.59-65.21,15.13-90.74,17,3.15-8.11,5.48-15.46,8.28-21.74a75,75,0,0,0,4.27-12.42,73.35,73.35,0,0,0,.74-32.6c-5.9-28.75-21.55-77.81-28.49-99.43,18.53-41.34,37.69-18.79,37.69-18.79s56,25.13,79.87,71.44S2070.52,883,2042,892.11Z"/><path class="cls-22" d="M1970.24,620.17s53.62,33.76,67.26,105.64l16.13-5.12s-6.25-51.31-68-104a64.16,64.16,0,0,0-7.85,1.46C1975.81,618.65,1970.24,620.17,1970.24,620.17Z"/><path class="cls-22" d="M2158.93,727.64,2142,728.75c3.38-62.33-27.89-104.87-37.14-116,5.8.46,11,1,15.76,1.65C2164.91,678.39,2158.93,727.64,2158.93,727.64Z"/><path class="cls-22" d="M2039.12,765.69c-1-4.44-11.39-47.59-11.39-47.59s-2.38-13.49,21.33-14.83,107.8-5.76,107.8-5.76,11.46,6.91,11.64,21.11S2180.11,814,2180.11,814l11.77,178.59-256.46,110.51s-17.58-90.26,2.11-153.18c11.48-36.69,26.29-75,26.29-75S2055.08,833.5,2039.12,765.69Z"/><path class="cls-7" d="M2036.83,719.54a7.09,7.09,0,1,1,8.9,4.61A7.08,7.08,0,0,1,2036.83,719.54Z"/><path class="cls-8" d="M2038,719.16a7.09,7.09,0,1,1,8.9,4.61A7.09,7.09,0,0,1,2038,719.16Z"/><path class="cls-22" d="M2040.41,717a1,1,0,1,1,1,1A1,1,0,0,1,2040.41,717Z"/><path class="cls-22" d="M2047.13,717a1,1,0,1,1,1,1A1,1,0,0,1,2047.13,717Z"/><path class="cls-7" d="M2141.11,710.54a7.09,7.09,0,1,1,8.9,4.61A7.08,7.08,0,0,1,2141.11,710.54Z"/><path class="cls-8" d="M2142.32,710.16a7.09,7.09,0,1,1,8.9,4.61A7.09,7.09,0,0,1,2142.32,710.16Z"/><path class="cls-22" d="M2144.69,708a1,1,0,1,1,1,1A1,1,0,0,1,2144.69,708Z"/><path class="cls-22" d="M2151.41,708a1,1,0,1,1,1,1A1,1,0,0,1,2151.41,708Z"/><path class="cls-20" d="M1959.32,507.9s-.59,12.64,7,15.12-7.81,29.76-6.6,48.2,9.36,25.83,9.36,25.83-3.92-10.14-1.73-16.41c0,0-.34,13,9.18,19.62s7,12.26,7,12.26,21.52-6.44,22.12-22.58c0,0,.93,7.29.18,10.31,0,0,18.59-14,19.47-30s-14.62-29.64-21.69-29.89-22.83-14.12-22.41-19.36S1959.32,507.9,1959.32,507.9Z"/><path class="cls-13" d="M2073.18,527.59s12.73,7.72,21.79,6.82,13.85-11.71,13.85-11.71A75.19,75.19,0,0,0,2073.18,527.59Z"/><path class="cls-24" d="M2029.22,936.86c-8-4.88-16.77-1.25-24.56,3,2.83-3.15,2.49-5.74,2-7.3s-5.55,3.78-11,6.22-6.93,8.66-6.93,8.66c-2,.07-10.06-4.4-17.24-8.63-31.14-20.18-85.55-107.06-87.12-114.6s68.2-75.16,89.4-100.16S1961,625.92,1928,638.8c0,0-95.16,112.38-126.65,175.7,0,0,32.82,71.42,136.34,135.31l-.15.12s29.34,18.52,42.92,23c14.13,4.68,34.15-5.27,42.27-6.46s25,5.79,30-.12S2043.63,945.72,2029.22,936.86Z"/><path class="cls-8" d="M1928,638.8l-42.74,41.76s9.76,61.66,74.45,69.72c0,0,53.11-42.52,21.38-86.8S1928,638.8,1928,638.8Z"/><path class="cls-22" d="M3263.05,1325.24s96.17,371.07,87.54,400.39-56.92,129-56.92,129h46.47a35,35,0,0,0,18-32.2c-.77-23,64.4-112.7,64.4-112.7s-25.56-142.46,0-198.58C3532.65,1269.49,3348.26,1271.78,3263.05,1325.24Z"/><path class="cls-22" d="M2769.07,1453.64s27.61,199.34,29.14,211.61,14.57,27.6,13.8,47.53-7.67,87.41-29.13,104.27-23.77,37.57-23.77,37.57h58.27s10-19.93,8.43-33.73,16.1-28.37,16.87-56.74,0-81.27,7.66-99.67,5.37-144.9,30.67-173.27S2769.07,1453.64,2769.07,1453.64Z"/><path class="cls-14" d="M3403,1387c.63,9.19.95,17.75.95,26.31-1.58,215.8-215.17,151.16-222.78,145.45-8.24-5.7-23.13-5.07-23.13-5.07-106.8,42.47-256.37,3.48-287.43-9.19s-113.76,18.7-152.11,15.84c-15.52-1.27-28.52-17.43-38.34-37.7-14-28.85-21.87-65.92-23.14-78.91-.63-7.29-10.45-35.18-23.76-69.4-5.39-13.32-11.41-27.89-17.75-42.78-1.27-2.54-2.22-5.39-3.49-7.93,3.17-3.49,6-7.28,8.88-11.09,16.79-22.18,28.52-48.17,41.51-74.15,13.31-27.26,27.57-55.15,48.8-80.18,31.38-9.82,68.77,7.93,84.3,7,18.06-.64,35.81-3.81,52-6.35,6.66-1.26,12.68-2.21,18.38-3.16,31.69-4.76,223.73,20,359.36,23.76,27.89.95,53.24.64,74.47-.63,1.59,0,3.17-.32,4.75-.32,56.73-3.17,86.83.32,102.68,5.39,17.43,5.39,17.75,12,17.75,12C3479.07,1248.82,3403,1387,3403,1387Z"/><path class="cls-14" d="M2699.25,1453.64s27.6,199.34,29.13,211.61,14.57,27.6,13.8,47.53-7.66,87.41-29.13,104.27-23.77,37.57-23.77,37.57h58.27s10-19.93,8.44-33.73,16.09-28.37,16.86-56.74,0-81.27,7.67-99.67,5.37-144.9,30.67-173.27S2699.25,1453.64,2699.25,1453.64Z"/><path class="cls-14" d="M3203.07,1408.24s77.62,288.07,69,317.39-56.92,129-56.92,129h46.47a35.05,35.05,0,0,0,18-32.2c-.77-23,64.4-112.7,64.4-112.7s5.26-162.61,43.6-210.91S3288.28,1354.79,3203.07,1408.24Z"/><path class="cls-25" d="M2412.32,1482c-3.14,4.22-5.91,7.23-5.91,7.23-.44-.19-6.4,1-13.81.68-5.95-.24-12.88-1.42-18.58-5.06a23.37,23.37,0,0,1-9.09-10.83s2.64-6.8,16.45-8.59c10.17-1.32,20.16-8.39,28.67-9.28h0a12.21,12.21,0,0,1,8.56,2C2425.05,1462.65,2418.06,1474.29,2412.32,1482Z"/><path class="cls-25" d="M2397.64,1508.85c-.4-.19-5.25.73-11.57.71-10.17,0-24.27-2.48-29.94-15.92,0,0,2.63-6.8,16.44-8.59a11.85,11.85,0,0,0,1.45-.24c8.89-1.58,17.64-7.17,25.28-8.72,3.82-.77,7.38-.53,10.54,1.68a5.75,5.75,0,0,1,2.48,4.19C2413.58,1491.48,2397.64,1508.85,2397.64,1508.85Z"/><path class="cls-14" d="M2713.76,1217.77c-3.81,98.87-22.18,288.06-33.59,304.86-27.89,1.26-50.39,3.8-68.77,7.6-57,11.72-72.89,33.27-78.27,43.41-10.14,20.29-57.68,66.55-65.92,68.14-8.55,1.58-13.62,12.67-22.5,30.74-8.55,17.74-25.67,19.32-39.92,20.28-14.27.63-26-16.48-26.31-20.6-.32-4.44,7.29-17.75,6-35.5-.95-17.74,10.46-70.66.95-84.92-6-9.19-2.53-28.84.64-42.15,1.9-7.93,3.8-13.31,3.8-13.31a35.55,35.55,0,0,1,2.85-6.34c1.9-4.12,4.12-8.87,6.66-13.94,2.85-6,6.65-12.68,10.77-20,17.11-30.42,42.78-70,76.37-111.54,33.59-41.84,74.79-84.93,123.59-123,30.74-24.08,64.65-46,101.09-63.38C2714.39,1159.45,2715,1183.22,2713.76,1217.77Z"/><path class="cls-22" d="M2758,1404.74c2-5.1,1-91.84,63.59-109.67s96.88,9.6,175-21.93,160.39-57.58,168.61-23.3-6.85,130.23,0,174.1-141.5,59.41-202.35,32.44S2736,1461,2758,1404.74Z"/><path class="cls-22" d="M3424.93,1196s40.55,34.61,47.41,96.3S3460,1625.06,3460,1625.06l-15.65-.88-16.8-299.86Z"/><path class="cls-22" d="M3441.72,1659.56s33.81-36.39,12.79-44.62-12.79,16.46-12.79,26Z"/><path class="cls-13" d="M3407.13,1183.86c-39.29,19.33-82.71,37.08-108.38,37.71-56.09,1-192.36-31.37-247.81-34.86s-280.14,48.49-333.06,31.69a8.76,8.76,0,0,0-4.12-.63c-11.73-1-29.47,7.29-51.34,20.6-12.36,7.92-26,17.42-40.24,28.2-92.22,69.72-212,189.5-212,189.5,17.11-30.42,42.78-70,76.37-111.54,33.59-41.84,74.79-84.93,123.59-123,30.74-24.08,64.65-46,101.09-63.38,31.38-9.82,68.77,7.93,84.3,7,18.06-.64,35.81-3.81,52-6.35,6.66-1.26,12.68-2.21,18.38-3.16,31.69-4.76,223.73,20,359.36,23.76,27.89.95,53.24.64,74.47-.63,1.59,0,3.17-.32,4.75-.32C3361.18,1175.3,3391.28,1178.79,3407.13,1183.86Z"/><path class="cls-22" d="M3225.18,1179.42c-24.52,20-71.57,28-138.06,15.58-80.88-15.08-100.07,20.56-167.24,23.31-59.27,2.41-70.51-47.68-72.33-59.53,6.52-1.08,12.72-2.13,18.45-3C2897.49,1151,3089.7,1175.54,3225.18,1179.42Z"/><path class="cls-22" d="M2620.91,1312.52a143.11,143.11,0,0,1-5.39,19,157.8,157.8,0,0,1-10.46,20.59c-35.81,57-1.9,125.49,6.34,178.1-57,11.72-72.89,33.27-78.27,43.41-10.14,20.29-57.68,66.55-65.92,68.14-8.55,1.58-13.62,12.67-22.5,30.74-8.55,17.74-25.67,19.32-39.92,20.28-14.27.63-26-16.48-26.31-20.6-.32-4.44,7.29-17.75,6-35.5-.95-17.74,10.46-70.66.95-84.92-6-9.19-2.53-28.84.64-42.15-10.14,0-24.4-2.53-30.11-15.85,0,0,2.85-7,16.48-8.87h1.59a24.72,24.72,0,0,1-9.19-11.09s2.85-6.65,16.47-8.55c10.14-1.27,20.28-8.24,28.84-9.2,17.11-30.42,42.78-70,76.37-111.54,33.59-41.84,74.79-84.93,123.59-123a189.64,189.64,0,0,1,12,45A140.6,140.6,0,0,1,2620.91,1312.52Z"/><path class="cls-22" d="M3403.08,1386.94c.6,9.2.85,17.94.8,26.28-69.59,51.61-191.64,25.56-200.81-36.52-10.56-71.52,85.57-81.63,78.52-140.56-2.88-24,8.45-43.29,22.87-57.66,119.35-7.07,120.47,17.55,120.47,17.55C3479,1248.93,3403.08,1386.94,3403.08,1386.94Z"/></g></g></svg>